<svg xmlns="http://www.w3.org/2000/svg" width="512" height="512" viewBox="0 0 512 512" version="1.1">
	<path d="M 223.500 2.900 C 65.958 24.741, -34.626 180.922, 11.948 331.386 C 51.333 458.627, 183.593 535.071, 312.965 505.371 C 413.297 482.338, 489.748 401.420, 507.944 299 C 510.787 282.998, 513.895 246.276, 512.193 248.805 C 511.651 249.609, 511.070 245.391, 510.679 237.805 C 509.387 212.805, 502.113 182.379, 491.479 157.500 C 487.282 147.682, 480.016 133, 479.353 133 C 478.174 133, 444.582 146.219, 443.644 147.052 C 443.173 147.470, 445.524 153.367, 448.869 160.156 C 460.088 182.933, 469.258 216.730, 470.532 240 L 471.107 250.500 466.163 237.299 C 441.142 170.494, 387.127 124.792, 316.361 110.551 C 279.552 103.144, 232.272 109.700, 198.104 126.947 C 194.636 128.698, 191.619 129.952, 191.401 129.734 C 189.638 127.971, 211.335 108.689, 225.500 99.429 C 272.408 68.766, 329.939 63.869, 375.345 86.673 C 381.451 89.740, 384.505 90.801, 384.985 90.024 C 385.911 88.527, 387.259 38.228, 386.410 36.854 C 385.258 34.991, 354.916 20.605, 342.951 16.249 C 328.801 11.098, 308.190 5.760, 293.500 3.441 C 276.985 0.834, 240.440 0.551, 223.500 2.900 M 232.500 41.706 C 153.238 49.044, 90.402 101.421, 74.953 173.030 C 71.638 188.397, 71.616 217.738, 74.908 233.500 C 81.624 265.652, 94.688 291.833, 116.727 317.310 C 125.344 327.270, 127.522 328.843, 124.438 322.879 C 113.822 302.351, 107.400 268.750, 108.276 238.318 C 110.767 151.793, 164.808 76.730, 247.500 44.938 L 257.500 41.093 247 41.215 C 241.225 41.282, 234.700 41.503, 232.500 41.706 M 395.625 52.250 C 395.320 56.788, 394.839 68.530, 394.556 78.344 C 394.051 95.880, 394.081 96.221, 396.271 98.051 C 397.497 99.075, 400.707 101.769, 403.405 104.038 L 408.311 108.164 422.655 93.845 C 430.545 85.969, 437 78.801, 437 77.915 C 437 74.568, 401.133 44, 397.206 44 C 396.632 44, 395.935 47.636, 395.625 52.250 M 431.626 101.457 C 422.073 111.530, 418.124 116.361, 418.688 117.283 C 419.135 118.013, 423.490 123.171, 428.367 128.746 L 437.235 138.882 443.867 136.365 C 447.515 134.981, 455.639 131.970, 461.921 129.674 C 468.202 127.378, 473.511 124.987, 473.718 124.359 C 474.516 121.938, 449.830 88.404, 446.438 87.303 C 445.854 87.114, 439.189 93.483, 431.626 101.457 M 237.167 151.555 C 174.864 162.932, 135.292 229.472, 155.168 289.439 C 175.655 351.250, 245.134 380.360, 303.105 351.421 C 356.638 324.698, 377.661 258.697, 349.348 206.249 C 327.463 165.707, 281.742 143.416, 237.167 151.555 M 387 188.166 C 387 188.474, 388.350 191.998, 390 195.999 C 432.616 299.346, 376.578 424.394, 269 466.005 C 253.521 471.992, 253.740 471.856, 259.500 471.924 C 275.517 472.113, 301.385 468.304, 317.955 463.317 C 380.800 444.400, 424.280 400.495, 437.163 342.941 C 440.571 327.716, 440.560 296.632, 437.142 280.500 C 430.801 250.576, 419.357 225.804, 401.712 203.804 C 394.756 195.130, 387 186.887, 387 188.166 M 41.049 266.830 C 40.981 274.242, 43.704 294.728, 46.190 305.500 C 54.773 342.693, 76.834 381.940, 101.080 403.148 C 152.405 448.043, 219.896 453.072, 281.430 416.587 C 294.785 408.668, 322.515 385.181, 320.678 383.344 C 320.418 383.084, 317.121 384.412, 313.352 386.295 C 273.619 406.147, 221.259 410.616, 177.500 397.890 C 114.084 379.448, 64.755 332.649, 44.490 271.702 L 41.098 261.500 41.049 266.830" stroke="none" fill="#000000" fill-rule="evenodd"/>
</svg>