<svg xmlns="http://www.w3.org/2000/svg" width="512" height="512" viewBox="0 0 512 512" version="1.1">
	<path d="M 225 53.661 C 196.606 57.394, 164.913 69.110, 141.503 84.527 C 63.996 135.569, 30.640 233.262, 60.591 321.500 C 64.825 333.973, 64.895 333.361, 59.319 332.525 C 44.739 330.339, 34.353 323.784, 32.105 315.351 C 30.077 307.746, 31.694 289.952, 35.094 282.453 C 36.757 278.785, 37.896 275.563, 37.625 275.292 C 36.786 274.452, 27.106 285.039, 19.605 295 C -12.159 337.185, -4.759 369.986, 39.024 381.068 C 45.983 382.829, 51.498 383.305, 69.833 383.727 L 92.166 384.242 105.333 397.371 C 137.482 429.427, 169.091 447.071, 209.854 455.711 C 221.455 458.170, 224.401 458.393, 245.500 458.408 C 270.262 458.426, 277.079 457.515, 298.500 451.331 C 372.035 430.100, 430.854 358.067, 442.452 275.039 C 443.927 264.483, 443.874 264.119, 441.159 266.110 C 440.116 266.875, 435.835 269.872, 431.645 272.771 C 426.958 276.015, 423.845 278.900, 423.553 280.271 C 423.292 281.497, 422.573 285.200, 421.955 288.500 C 415.631 322.258, 391.702 364.219, 363.627 390.779 C 352.328 401.468, 330.024 417.358, 328.483 415.816 C 328.263 415.597, 331.512 412.356, 335.701 408.615 C 339.890 404.873, 344.282 400.392, 345.462 398.656 C 346.642 396.920, 349.861 392.350, 352.615 388.500 C 358.684 380.017, 366 367.823, 366 366.190 C 366 363.423, 362.750 365.338, 360.225 369.593 C 354.718 378.875, 347.966 388.627, 343.705 393.452 L 339.332 398.405 331.416 396.285 C 327.062 395.119, 321.587 393.864, 319.250 393.495 C 316.913 393.126, 315 392.676, 315 392.495 C 315 392.314, 317.715 386.997, 321.032 380.680 C 324.350 374.363, 326.938 368.645, 326.782 367.972 C 326.627 367.300, 327.850 366.337, 329.500 365.832 C 355.544 357.860, 376.099 348.609, 377.365 344.288 C 378.404 340.742, 387.165 303.285, 389.127 294 C 390.231 288.775, 391.301 283.825, 391.503 283 C 392.083 280.645, 397 258.721, 397 258.494 C 397 257.760, 333.272 257.226, 314.151 257.800 L 290.801 258.500 306.100 274.750 L 321.399 291 332.267 291 C 342.131 291, 343.091 291.162, 342.662 292.750 C 342.401 293.712, 341.190 298.775, 339.968 304 C 337.347 315.218, 337.656 314.844, 327.627 318.943 C 311.472 325.545, 293.679 328.156, 279.009 326.075 L 273.518 325.297 265.009 333.933 C 256.769 342.295, 236.772 356.822, 229.250 359.909 C 227.463 360.642, 226 361.582, 226 361.997 C 226 363.151, 247.478 368.751, 256.566 369.966 C 273.924 372.288, 299.126 371.703, 317.735 368.548 L 321.969 367.829 320.369 371.665 C 318.017 377.301, 312.367 388.249, 310.832 390.143 C 309.614 391.647, 308.646 391.664, 299.500 390.342 C 294 389.548, 280.725 388.583, 270 388.199 L 250.500 387.500 250 382.500 C 249.284 375.336, 246.614 375.511, 246.198 382.750 L 245.895 388 237.698 388.001 C 226.537 388.002, 209.926 389.614, 195.500 392.097 C 188.900 393.233, 182.057 394.406, 180.293 394.705 C 177.179 395.232, 176.913 394.980, 171.053 385.917 C 167.734 380.785, 164.550 375.167, 163.978 373.432 C 163.405 371.697, 162 369.860, 160.856 369.349 C 159.110 368.570, 160.438 367.801, 169.138 364.554 C 174.837 362.427, 184.185 358.505, 189.911 355.837 C 195.636 353.170, 200.504 351.171, 200.728 351.395 C 202.121 352.787, 178.165 367.429, 171.638 369.174 C 169.087 369.857, 167 370.771, 167 371.207 C 167 372.434, 171.012 372.146, 175.467 370.600 C 177.685 369.830, 183.775 367.970, 189 366.466 C 255.250 347.400, 289.387 306.761, 270.842 269.036 C 265.049 257.253, 248.424 243.980, 231.500 237.627 C 182.496 219.231, 167.603 209.685, 170.417 198.475 C 172.118 191.698, 183.369 183.996, 196.500 180.619 C 215.097 175.837, 218.076 175.684, 305 175.077 L 387.500 174.500 399.595 164.824 C 406.247 159.502, 418.622 149.895, 427.095 143.475 L 442.500 131.801 451.500 132.362 C 460.052 132.895, 467.438 134.559, 471.936 136.966 C 474.983 138.596, 476.564 142.440, 478.633 153.248 C 480.427 162.615, 481.795 165.504, 482.185 160.750 C 482.286 159.512, 482.448 157.600, 482.543 156.500 C 482.762 153.994, 483.724 149.972, 485.697 143.312 C 487.530 137.129, 489.398 136.099, 503.500 133.490 C 504.050 133.388, 506.262 133.236, 508.417 133.152 C 514.129 132.930, 512.096 131.833, 502.293 129.849 C 486.441 126.639, 486.227 126.395, 483.348 108.165 C 482.378 102.024, 481.290 97, 480.930 97 C 480.571 97, 479.986 99.834, 479.631 103.297 C 478.817 111.238, 475.654 122.775, 473.775 124.654 C 472.080 126.349, 455.843 129.842, 448.588 130.072 C 445.790 130.161, 434.168 129.890, 422.762 129.469 L 402.024 128.705 398.949 123.256 C 394.287 114.995, 370.552 91.689, 359.042 84.070 C 321.348 59.119, 270.766 47.643, 225 53.661 M 227 67.665 C 200.101 71.886, 174.276 81.261, 154.810 93.873 C 146.951 98.964, 143.664 102.862, 132.727 120.062 L 128.955 125.995 134.727 123.418 C 145.411 118.649, 158.431 114.115, 169 111.484 L 179.500 108.871 185.969 100.971 C 196.374 88.264, 210.235 77.522, 225.429 70.391 C 232.230 67.198, 232.455 66.809, 227 67.665 M 237 69.429 C 221.708 74.793, 207.817 83.913, 194.750 97.168 C 189.938 102.050, 186 106.408, 186 106.853 C 186 107.297, 188.813 107.063, 192.250 106.331 C 199.533 104.782, 228.662 102.012, 237.750 102.005 L 244 102 244 84.500 C 244 74.875, 243.887 67.033, 243.750 67.074 C 243.613 67.115, 240.575 68.175, 237 69.429 M 249 84.324 L 249 101.685 265.750 102.330 C 274.962 102.684, 288.308 103.659, 295.408 104.496 C 302.507 105.333, 308.461 105.872, 308.639 105.694 C 309.307 105.027, 299.111 93.790, 292.923 88.373 C 279.947 77.016, 268.924 71.449, 251.750 67.581 L 249 66.962 249 84.324 M 271.866 70.440 C 286.251 77.358, 298.899 87.290, 309.479 99.974 C 314.886 106.457, 316.619 107.890, 319.742 108.455 C 333.881 111.018, 353 117.141, 353 119.106 C 353 120.330, 348.735 120.231, 345.315 118.927 C 343.767 118.337, 337.222 116.600, 330.772 115.068 L 319.043 112.282 322.549 118.391 C 324.477 121.751, 326.415 125.093, 326.856 125.819 C 327.737 127.271, 391.224 129.319, 393.868 127.980 C 397.085 126.353, 375.064 106.392, 358 95.467 C 334.493 80.417, 299.589 68.688, 274.500 67.408 L 264.500 66.898 271.866 70.440 M 125.874 116.750 C 115.868 126.412, 105.217 138.649, 106.144 139.416 C 106.340 139.578, 110.222 137.267, 114.771 134.280 C 121.461 129.888, 123.511 127.926, 125.491 124.018 C 126.838 121.360, 130.185 116.219, 132.930 112.593 C 135.674 108.967, 137.714 106, 137.463 106 C 137.212 106, 131.997 110.838, 125.874 116.750 M 218.500 107.616 C 210.250 108.377, 198.579 109.787, 192.565 110.749 L 181.631 112.500 176.866 119.489 C 174.246 123.333, 170.026 130.417, 167.487 135.231 L 162.872 143.984 167.186 142.135 C 172.018 140.064, 188.854 135.082, 193.186 134.442 C 198.329 133.681, 201.446 133.138, 207 132.034 C 212.449 130.951, 216.832 130.379, 226.500 129.491 C 229.250 129.238, 235.550 128.570, 240.500 128.005 C 245.450 127.441, 265.250 127.037, 284.500 127.108 C 303.750 127.179, 320.069 127.183, 320.764 127.118 C 322.152 126.988, 317.654 117.237, 314.360 113.233 C 312.199 110.605, 290.759 107.719, 263.750 106.420 L 249 105.710 248.985 113.605 C 248.969 121.881, 247.924 125.324, 246.009 123.409 C 244.880 122.280, 244.154 117.385, 244.058 110.250 L 244 106 238.750 106.117 C 235.863 106.181, 226.750 106.856, 218.500 107.616 M 168 116.026 C 156.555 119.064, 141.095 124.904, 130.969 130.015 C 125.527 132.763, 124.713 133.619, 121.516 139.967 C 112.016 158.833, 102.844 188.129, 100.060 208.500 C 99.459 212.900, 98.773 217.677, 98.535 219.116 L 98.104 221.731 103.570 219.717 C 112.541 216.413, 112.549 220.540, 103.580 224.507 C 98.330 226.829, 98.110 227.083, 97.428 231.634 C 95.793 242.537, 99.092 294.426, 101.579 296.912 C 101.810 297.143, 105.937 295.480, 110.749 293.216 C 127.006 285.568, 156.087 275.754, 157.703 277.370 C 159.015 278.682, 155.454 280.990, 148.195 283.533 C 126.793 291.029, 117.813 294.572, 110.697 298.326 C 101.689 303.077, 101.986 301.021, 107.727 318.855 C 109.738 325.100, 111.988 330.442, 112.727 330.725 C 118.205 332.828, 159.098 321.790, 177.231 313.316 L 184.963 309.702 184.329 299.351 C 183.981 293.658, 183.911 289, 184.173 289 C 185.557 289, 199.153 294.033, 203.019 295.976 C 217.751 303.381, 220.752 313.920, 211.281 324.985 C 207.028 329.953, 194.806 336.085, 177.223 342.074 C 160.642 347.721, 156.765 350.777, 163.404 352.968 C 169.001 354.816, 192.106 347.942, 209.500 339.254 C 227.710 330.159, 234.785 313.865, 226.397 300.339 C 221.019 291.665, 210.623 286.358, 181.500 277.417 C 144.075 265.929, 126.832 254.466, 117.813 235.080 C 112.240 223.101, 111.220 211.040, 114.468 195.500 C 118.095 178.143, 132.136 160.613, 150.912 150 C 156.751 146.700, 157.366 145.986, 161.677 137.500 C 164.192 132.550, 168.243 125.411, 170.678 121.637 C 173.114 117.862, 174.970 114.667, 174.803 114.537 C 174.636 114.407, 171.575 115.077, 168 116.026 M 480.651 119.755 C 480.228 120.440, 480.144 121.423, 480.463 121.940 C 480.783 122.458, 480.050 123.808, 478.834 124.940 C 477.618 126.073, 477.158 127, 477.811 127 C 479.714 127, 478.694 129.439, 476.500 130.134 C 475.343 130.501, 476.519 130.763, 479.290 130.757 C 483.920 130.745, 484.063 130.658, 483.566 128.122 C 482.103 120.649, 481.381 118.575, 480.651 119.755 M 110 142.195 C 99.889 148.811, 96.689 151.972, 92.034 159.941 C 80.337 179.970, 71.017 208.436, 68.460 231.944 L 67.759 238.388 70.629 236.474 C 74.486 233.901, 92.339 224, 93.121 224 C 93.462 224, 94.057 221.188, 94.442 217.750 C 96.875 196.025, 105.252 166.227, 115.087 144.306 C 116.714 140.679, 117.923 137.617, 117.773 137.500 C 117.623 137.383, 114.125 139.496, 110 142.195 M 436 148.901 C 436 149.485, 437.238 150.205, 438.750 150.501 C 440.262 150.798, 444.425 152.503, 448 154.289 C 453.707 157.142, 454.845 158.207, 457.329 163.019 C 466.671 181.122, 451.251 206.016, 407.639 243.236 C 403.863 246.458, 403.739 246.782, 401.970 258.015 C 400.975 264.332, 399.732 271.637, 399.209 274.250 C 398.527 277.659, 398.575 278.994, 399.379 278.979 C 401.417 278.942, 428.306 256.814, 439.379 246.063 C 464.919 221.265, 481 194.371, 481 176.457 C 481 160.979, 469.188 151.068, 448.870 149.497 C 444.816 149.183, 440.262 148.683, 438.750 148.384 C 437.138 148.066, 436 148.280, 436 148.901 M 491.483 170.300 C 491.457 185.326, 485.286 201.808, 472.577 220.795 C 463.868 233.807, 450.568 248.115, 439.250 256.647 C 435.262 259.653, 432 262.559, 432 263.106 C 432 263.665, 432.571 263.750, 433.307 263.300 C 469.590 241.093, 496.052 205.481, 495.948 179 C 495.927 173.820, 493.616 162.216, 492.354 160.954 C 491.882 160.482, 491.492 164.663, 491.483 170.300 M 298.500 192.667 C 276.393 194.496, 256.208 199.801, 238.500 208.437 C 229.168 212.988, 218 219.904, 218 221.132 C 218 221.520, 221.037 222.836, 224.750 224.058 C 236.359 227.877, 250.333 234.439, 259.294 240.280 L 267.914 245.899 273.750 242.890 C 287.485 235.806, 288.681 235.680, 348.168 235.060 C 377.686 234.752, 401.998 234.275, 402.195 234 C 402.393 233.725, 404.266 228.100, 406.357 221.500 C 408.449 214.900, 411.474 205.974, 413.080 201.665 C 414.686 197.355, 416 193.418, 416 192.915 C 416 192.078, 308.363 191.851, 298.500 192.667 M 293 195.761 C 295.346 196.219, 295.377 196.302, 293.500 197.102 C 292.351 197.592, 297.034 197.698, 304.500 197.350 C 320.511 196.605, 322.582 195.750, 307.326 196.183 C 301.199 196.358, 296.395 196.162, 296.652 195.750 C 296.908 195.338, 295.629 195.061, 293.809 195.136 C 291.013 195.251, 290.888 195.348, 293 195.761 M 268.446 200.087 C 268.077 200.685, 266.975 200.965, 265.998 200.710 C 265.021 200.454, 263.609 200.633, 262.861 201.107 C 261.827 201.762, 261.980 201.995, 263.500 202.075 C 264.749 202.141, 264.239 202.543, 262.140 203.147 C 260.293 203.679, 258.954 204.288, 259.166 204.500 C 259.378 204.712, 263.590 203.789, 268.526 202.449 C 273.820 201.012, 275.727 200.225, 273.176 200.530 C 270.364 200.866, 269.074 200.689, 269.485 200.024 C 269.833 199.461, 269.893 199, 269.618 199 C 269.343 199, 268.816 199.489, 268.446 200.087 M 80.500 235.681 C 73.900 239.275, 68.169 242.729, 67.765 243.358 C 66.682 245.042, 66.844 264.263, 68.024 274.026 C 69.448 285.801, 71.777 297.113, 74.674 306.327 C 76.932 313.506, 77.283 314.044, 78.918 312.827 C 79.898 312.097, 84.600 308.840, 89.366 305.589 C 95.811 301.193, 97.895 299.246, 97.497 297.991 C 94.872 289.721, 93.695 278.094, 93.127 254.824 L 92.500 229.147 80.500 235.681 M 91.883 309.263 C 88.244 311.593, 83.853 314.711, 82.125 316.192 L 78.985 318.884 81.015 324.192 C 84.972 334.532, 86.517 335.091, 103.757 332.413 C 107.568 331.821, 107.539 331.334, 102.964 319 C 101.434 314.875, 99.804 310.043, 99.341 308.263 L 98.500 305.026 91.883 309.263 M 150 371.166 C 148.625 371.737, 140.975 373.861, 133 375.885 C 114.991 380.456, 114.824 380.762, 125.048 390.406 C 135.029 399.822, 143.973 406.267, 145.407 405.077 C 146.843 403.885, 160.912 399.240, 167.250 397.865 C 169.863 397.298, 172 396.437, 172 395.952 C 172 394.702, 159.337 375.525, 157.512 374.010 C 156.680 373.320, 156 372.135, 156 371.378 C 156 369.775, 153.555 369.688, 150 371.166 M 230 392.659 C 205.288 394.359, 182 398.132, 182 400.436 C 182 402.986, 204.598 423.624, 214.899 430.482 L 225.196 437.337 235.598 437.800 L 246 438.262 246 415.131 L 246 392 240.250 392.175 C 237.088 392.271, 232.475 392.489, 230 392.659 M 250 414.845 L 250 438 255.274 438 C 267.343 438, 290.043 420.477, 304.089 400.318 C 306.687 396.589, 306.813 396.078, 305.251 395.606 C 301.976 394.616, 283.386 393.058, 266.668 392.373 L 250 391.690 250 414.845 M 308.054 402.427 C 298.973 414.719, 287.501 425.962, 276.500 433.352 L 272.500 436.039 276 435.384 C 284.846 433.727, 298.214 429.958, 305.600 427.038 C 312.792 424.195, 314.921 422.680, 324.600 413.517 C 332.359 406.172, 335.197 402.882, 334.450 402.100 C 333.435 401.037, 317.271 397.066, 313.782 397.022 C 312.836 397.010, 310.259 399.442, 308.054 402.427 M 159.724 404.405 C 153.798 406.227, 148.701 407.966, 148.397 408.270 C 147.037 409.630, 171.034 422.082, 185.241 427.388 C 194.361 430.794, 210.993 435.340, 211.710 434.623 C 211.887 434.446, 208.699 431.749, 204.625 428.628 C 200.551 425.508, 192.446 418.015, 186.613 411.978 C 174.285 399.218, 175.490 399.557, 159.724 404.405" stroke="none" fill="#000000" fill-rule="evenodd"/>
</svg>